<svg width="121" height="33" viewBox="0 0 121 33" fill="none" xmlns="http://www.w3.org/2000/svg"><path d="M29.23 23.941H32v9.031H0v-9.03h8.85a6.503 6.503 0 005.359-2.597l1.648 3.01a.85.85 0 00.858.437.858.858 0 00.753-.64l3.386-14.84 1.596 18.061a.978.978 0 001.851.346l2.566-5.328a2.95 2.95 0 002.363 1.55zM0 .972v21.284h8.85a5.096 5.096 0 004.516-2.725c.104-.2.25-.374.429-.512a.858.858 0 01.989.037.82.82 0 01.223.264l1.264 2.334 3.763-16.076a1.06 1.06 0 012.092.143l1.738 19.206 2.175-4.643a.82.82 0 01.61-.444.864.864 0 01.753.218c.168.19.305.406.406.64.279.542.805 1.558 1.505 1.558h2.77V.972H0zm44.478 3.282h10.024c2.56 0 4.516.7 5.607 1.979a4.516 4.516 0 011.046 3.71v.06a6.24 6.24 0 01-3.808 4.983c2.506.895 4.147 2.393 3.763 5.426v.067c-.49 3.99-4.041 6.134-9.031 6.134H41.731l2.747-22.36zm8.527 12.74H46.78l-.753 6.134h6.51c2.687 0 4.44-1.053 4.689-3.063v-.067c.24-1.882-1.122-3.003-4.222-3.003zm4.139-6.419c.218-1.753-1.054-2.837-3.575-2.837h-5.652l-.752 5.938h5.366c2.52 0 4.334-.993 4.583-3.01l.03-.09zm6.645 9.904l1.317-10.731h3.869l-1.174 9.58c-.324 2.619.805 4.087 3.1 4.087 2.296 0 3.989-1.506 4.313-4.147l1.166-9.52h3.898l-2.07 16.865h-3.882l.323-2.619a7.007 7.007 0 01-5.637 2.965c-3.823 0-5.712-2.551-5.223-6.48zM83.981 9.748h3.891l-.346 2.807a7.78 7.78 0 016.133-3.161c3.959 0 7.444 3.13 6.774 8.752v.068c-.685 5.584-4.907 8.745-8.896 8.745a5.976 5.976 0 01-5.388-2.965l-.949 7.73h-3.86l2.64-21.977zm12.47 8.466v-.068c.4-3.258-1.505-5.396-4.161-5.396a5.908 5.908 0 00-5.577 5.396v.068c-.399 3.221 1.633 5.396 4.252 5.396 2.62 0 5.073-2.077 5.479-5.396h.007zm5.938 0v-.068c.685-5.591 4.877-8.752 8.904-8.752a6.022 6.022 0 015.381 3.01l.323-2.619h3.861l-2.07 16.866h-3.823l.339-2.815a7.756 7.756 0 01-6.134 3.16c-3.988-.037-7.473-3.198-6.788-8.782h.007zm13.637 0v-.068c.399-3.258-1.633-5.396-4.222-5.396-2.589 0-5.102 2.047-5.516 5.396v.068c-.399 3.251 1.573 5.396 4.192 5.396s5.147-2.175 5.539-5.396h.007z" fill="#0075CE"/></svg>